<svg width="40" height="41" viewBox="0 0 40 41" fill="none" xmlns="http://www.w3.org/2000/svg">
<path d="M26.6171 17.0735C26.6171 13.8234 24.2629 11.122 21.1637 10.5734H18.8356C15.7365 11.1221 13.3832 13.8235 13.3832 17.0735V24.5054C13.3832 24.7249 13.2956 24.9358 13.1402 25.0911L10.8332 27.3936H29.1661L26.8601 25.0911C26.7045 24.9358 26.6171 24.7251 26.6171 24.5054V17.0735ZM28.2767 24.1622L31.7564 27.6361C31.9937 27.873 32.0654 28.2296 31.937 28.5391C31.8085 28.8485 31.5052 29.05 31.1696 29.05H8.8297C8.49418 29.05 8.19178 28.8484 8.06326 28.5391C7.93482 28.2296 8.00554 27.873 8.24287 27.6361L11.7235 24.1622V17.0735C11.7235 12.9795 14.7067 9.5841 18.6214 8.9285L18.7588 8.91699H21.2405C21.2864 8.91699 21.3326 8.92093 21.3779 8.9285C25.2926 9.5841 28.2767 12.9795 28.2767 17.0735V24.1622Z" fill="#424554"/>
<path d="M21.241 8.36555C21.241 7.709 20.6854 7.17676 19.9999 7.17676C19.3145 7.17676 18.7588 7.709 18.7588 8.36555V9.65419H21.241V8.36555Z" fill="#424554"/>
<path d="M22.4821 30.6992C22.4821 32.0675 21.3707 33.1766 19.9998 33.1766C18.6289 33.1766 17.5176 32.0675 17.5176 30.6992H22.4821Z" fill="#424554"/>
</svg>
