<svg width="20" height="20" viewBox="0 0 20 20" fill="none" xmlns="http://www.w3.org/2000/svg">
<path d="M13.8335 12.25C13.8335 11.414 12.999 10.5 11.6567 10.5H6.8335V14H11.6567C12.999 14 13.8335 13.086 13.8335 12.25ZM12.7749 6.75C12.7749 5.91398 11.9404 5 10.5981 5H6.8335V8.5H10.5981C11.9404 8.5 12.7749 7.58602 12.7749 6.75ZM14.7749 6.75C14.7749 7.65816 14.4314 8.4541 13.8774 9.07715C15.0231 9.71933 15.8335 10.8526 15.8335 12.25C15.8335 14.4515 13.8231 16 11.6567 16H5.8335C5.28121 16 4.8335 15.5523 4.8335 15V4C4.8335 3.44772 5.28121 3 5.8335 3H10.5981C12.7645 3 14.7749 4.54846 14.7749 6.75Z" fill="#9095AC"/>
</svg>
