<svg width="20" height="20" viewBox="0 0 20 20" fill="none" xmlns="http://www.w3.org/2000/svg">
<path d="M3.12451 2.7085C2.77934 2.7085 2.49951 2.98832 2.49951 3.3335C2.49951 3.67867 2.77934 3.9585 3.12451 3.9585H16.8745C17.2197 3.9585 17.4995 3.67867 17.4995 3.3335C17.4995 2.98832 17.2197 2.7085 16.8745 2.7085H3.12451Z" fill="#9095AC"/>
<path d="M5.62451 6.875C5.27934 6.875 4.99951 7.15483 4.99951 7.5C4.99951 7.84517 5.27934 8.125 5.62451 8.125H14.3745C14.7197 8.125 14.9995 7.84517 14.9995 7.5C14.9995 7.15483 14.7197 6.875 14.3745 6.875H5.62451Z" fill="#9095AC"/>
<path d="M5.62451 15.2085C5.27934 15.2085 4.99951 15.4883 4.99951 15.8335C4.99951 16.1787 5.27934 16.4585 5.62451 16.4585H14.3745C14.7197 16.4585 14.9995 16.1787 14.9995 15.8335C14.9995 15.4883 14.7197 15.2085 14.3745 15.2085H5.62451Z" fill="#9095AC"/>
<path d="M2.49951 11.6665C2.49951 11.3213 2.77934 11.0415 3.12451 11.0415H16.8745C17.2197 11.0415 17.4995 11.3213 17.4995 11.6665C17.4995 12.0117 17.2197 12.2915 16.8745 12.2915H3.12451C2.77934 12.2915 2.49951 12.0117 2.49951 11.6665Z" fill="#9095AC"/>
</svg>
