<svg width="24" height="24" viewBox="0 0 24 24" fill="none" xmlns="http://www.w3.org/2000/svg">
<path d="M19.7939 12.2924C20.1848 11.9025 20.8179 11.9028 21.208 12.2934C21.5981 12.6844 21.598 13.3184 21.207 13.7084L14.9502 19.9506C13.6375 21.2631 11.8573 22.0003 10.001 22.0004C8.14451 22.0004 6.36359 21.2632 5.05078 19.9506C3.73801 18.6379 3.00009 16.857 3 15.0004C3 13.1481 3.73392 11.371 5.04102 10.059L11.4561 3.47407C11.4631 3.46681 11.4703 3.45962 11.4775 3.45258C12.4206 2.54179 13.6841 2.03787 14.9951 2.04926C16.306 2.06073 17.5603 2.58714 18.4873 3.51411C19.4141 4.44111 19.9398 5.69549 19.9512 7.00629C19.9624 8.31711 19.4585 9.58 18.5479 10.5229L18.5449 10.5258L12.1328 17.1079L12.1338 17.1088C11.8571 17.3953 11.5261 17.6235 11.1602 17.7807C10.7941 17.9379 10.4003 18.0214 10.002 18.0248C9.60363 18.0283 9.20851 17.952 8.83984 17.8012C8.4712 17.6504 8.13614 17.4276 7.85449 17.1459C7.57286 16.8643 7.35005 16.5292 7.19922 16.1606C7.04841 15.7919 6.97212 15.3968 6.97559 14.9985C6.97906 14.6002 7.06252 14.2062 7.21973 13.8403C7.37695 13.4744 7.60517 13.1433 7.8916 12.8666L14.4658 6.2934C14.8563 5.90289 15.4894 5.90288 15.8799 6.2934C16.2701 6.68395 16.2703 7.31705 15.8799 7.70746L9.29395 14.2934C9.2899 14.2974 9.28537 14.3011 9.28125 14.3051C9.18574 14.3974 9.10905 14.5083 9.05664 14.6303C9.00436 14.7522 8.97674 14.8834 8.97559 15.0161C8.97444 15.1488 9.00051 15.2809 9.05078 15.4038C9.10104 15.5264 9.17483 15.6381 9.26855 15.7319C9.36245 15.8258 9.47476 15.9003 9.59766 15.9506C9.72034 16.0007 9.85186 16.026 9.98438 16.0248C10.1172 16.0237 10.2491 15.9962 10.3711 15.9438C10.493 15.8914 10.6031 15.8146 10.6953 15.7192L10.6982 15.7163L17.1123 9.13032C17.6569 8.56485 17.958 7.80803 17.9512 7.02289C17.9443 6.23641 17.6284 5.48432 17.0723 4.92817C16.5161 4.37203 15.764 4.05613 14.9775 4.04926C14.1926 4.04244 13.4355 4.34288 12.8701 4.88715L6.47363 11.4545L6.46484 11.4643C5.52707 12.4021 5 13.6742 5 15.0004C5.00009 16.3265 5.5272 17.5979 6.46484 18.5356C7.40262 19.4734 8.67476 20.0004 10.001 20.0004C11.327 20.0003 12.5985 19.4733 13.5361 18.5356H13.5371L19.7939 12.2924Z" fill="#9095AC"/>
</svg>
