<svg width="35" height="36" viewBox="0 0 35 36" fill="none" xmlns="http://www.w3.org/2000/svg">
<path d="M30.1174 3.17676C30.6048 3.17676 31 3.5718 31 4.05911V32.2944C31 32.7817 30.6048 33.1768 30.1174 33.1768H5.13937C4.65212 33.1765 4.25676 32.7816 4.25676 32.2944V26.1179H2.88261C2.39516 26.1179 2 25.7229 2 25.2356C2 24.7483 2.39516 24.3532 2.88261 24.3532H4.25676V19.0591H2.88261C2.39516 19.0591 2 18.6641 2 18.1768C2 17.6894 2.39516 17.2944 2.88261 17.2944H4.25676V12.0003H2.88261C2.39516 12.0003 2 11.6052 2 11.1179C2 10.6306 2.39516 10.2356 2.88261 10.2356H4.25676V4.05911C4.25676 3.57195 4.65212 3.177 5.13937 3.17676H30.1174ZM6.02198 10.2356H7.39711C7.88452 10.2356 8.27972 10.6307 8.27972 11.1179C8.27972 11.6052 7.88452 12.0002 7.39711 12.0003H6.02198V17.2944H7.39711C7.88452 17.2945 8.27972 17.6895 8.27972 18.1768C8.27972 18.664 7.88452 19.0591 7.39711 19.0591H6.02198V24.3532H7.39711C7.88452 24.3533 8.27972 24.7483 8.27972 25.2356C8.27972 25.7229 7.88452 26.1179 7.39711 26.1179H6.02198V31.4121H29.2348V4.94146H26.849V14.412C26.849 14.7691 26.6334 15.091 26.3033 15.2274C25.973 15.3638 25.593 15.2874 25.3409 15.0344L22.6832 12.3666L20.0265 15.0344C19.7744 15.2874 19.3943 15.3637 19.0641 15.2274C18.7339 15.091 18.5184 14.7692 18.5184 14.412V4.94146H6.02198V10.2356ZM20.2836 12.276L22.0587 10.4956L22.1227 10.4365C22.2799 10.3072 22.4779 10.2357 22.6832 10.2356C22.9178 10.2356 23.1431 10.3294 23.3087 10.4956L25.0838 12.276V4.94146H20.2836V12.276Z" fill="#1B1C1E"/>
</svg>
