<svg width="35" height="36" viewBox="0 0 35 36" fill="none" xmlns="http://www.w3.org/2000/svg">
<path d="M29.1162 33.1768C29.3506 33.1768 29.5758 33.0842 29.7416 32.9188C29.9073 32.7534 30 32.5286 30 32.2946L30 9.10765C30 8.8802 29.9121 8.66148 29.7544 8.49726L23.9463 2.44848C23.7796 2.27487 23.549 2.17676 23.3081 2.17676L5.88384 2.17676C5.64943 2.17676 5.42419 2.26927 5.25844 2.4347C5.09269 2.60013 5 2.82492 5 3.05887L5 32.2946C5 32.7818 5.39571 33.1768 5.88384 33.1768L29.1162 33.1768ZM6.76767 3.94099L22.4242 3.94099L22.4242 9.10765C22.4242 9.59483 22.8199 9.98976 23.3081 9.98976L28.2323 9.98976L28.2323 31.4125L6.76768 31.4125L6.76767 3.94099ZM24.1919 5.2553L27.0447 8.22554L24.1919 8.22554L24.1919 5.2553ZM24.2758 17.0467C24.7639 17.0467 25.1596 16.6517 25.1596 16.1646C25.1596 15.6774 24.7639 15.2824 24.2758 15.2824L10.7242 15.2824C10.2361 15.2824 9.8404 15.6774 9.84039 16.1646C9.84039 16.6517 10.2361 17.0467 10.7242 17.0467L24.2758 17.0467ZM24.2758 21.0792C24.7639 21.0792 25.1596 20.6843 25.1596 20.1971C25.1596 19.7099 24.7639 19.315 24.2758 19.315L10.7242 19.315C10.2361 19.315 9.8404 19.7099 9.8404 20.1971C9.8404 20.6843 10.2361 21.0792 10.7242 21.0792L24.2758 21.0792ZM24.2758 27.128C24.7639 27.128 25.1596 26.733 25.1596 26.2459C25.1596 25.7587 24.7639 25.3637 24.2758 25.3637L20.404 25.3637C19.9159 25.3638 19.5202 25.7587 19.5202 26.2459C19.5202 26.733 19.9159 27.128 20.404 27.128L24.2758 27.128Z" fill="#1B1C1E"/>
</svg>
