<svg width="24" height="25" viewBox="0 0 24 25" fill="none" xmlns="http://www.w3.org/2000/svg">
<path fill-rule="evenodd" clip-rule="evenodd" d="M12 8C9.51472 8 7.5 10.0147 7.5 12.5C7.5 14.9853 9.51472 17 12 17C14.4853 17 16.5 14.9853 16.5 12.5C16.5 10.0147 14.4853 8 12 8ZM9 12.5C9 10.8431 10.3431 9.5 12 9.5C13.6568 9.5 15 10.8431 15 12.5C15 14.1569 13.6568 15.5 12 15.5C10.3431 15.5 9 14.1569 9 12.5Z" fill="#6C6150"/>
<path fill-rule="evenodd" clip-rule="evenodd" d="M11.9987 4.25C7.00043 4.25 2.69606 7.21633 0.737724 11.4835C0.441592 12.1288 0.441592 12.8712 0.737724 13.5165C2.69606 17.7837 7.00043 20.75 11.9987 20.75C16.9969 20.75 21.3013 17.7837 23.2596 13.5165C23.5558 12.8712 23.5558 12.1288 23.2596 11.4835C21.3013 7.21633 16.9969 4.25 11.9987 4.25ZM2.10102 12.1091C3.82454 8.35362 7.60962 5.75 11.9987 5.75C16.3877 5.75 20.1728 8.35362 21.8963 12.1091C22.0102 12.3572 22.0102 12.6428 21.8963 12.8909C20.1728 16.6464 16.3877 19.25 11.9987 19.25C7.60962 19.25 3.82454 16.6464 2.10102 12.8909C1.98717 12.6428 1.98716 12.3572 2.10102 12.1091Z" fill="#6C6150"/>
</svg>
