<svg width="40" height="41" viewBox="0 0 40 41" fill="none" xmlns="http://www.w3.org/2000/svg">
<path d="M28 8.83301C28.466 8.83301 28.8438 9.21077 28.8438 9.67676V30.6768C28.8438 31.0078 28.6501 31.3085 28.3486 31.4453C28.0472 31.5821 27.6935 31.5295 27.4443 31.3115L20 24.7969L12.5557 31.3115C12.3065 31.5295 11.9528 31.5821 11.6514 31.4453C11.3499 31.3085 11.1563 31.0078 11.1562 30.6768V9.67676C11.1562 9.21077 11.534 8.83301 12 8.83301H28ZM12.8438 28.8174L19.4443 23.042L19.5703 22.9502C19.8787 22.7675 20.2773 22.7984 20.5557 23.042L27.1562 28.8174V10.5205H12.8438V28.8174Z" fill="#1B1C1E"/>
</svg>
