<svg width="36" height="36" viewBox="0 0 36 36" fill="none" xmlns="http://www.w3.org/2000/svg">
<path fill-rule="evenodd" clip-rule="evenodd" d="M16.416 1.87549H19.584C22.341 1.87549 24.525 1.87549 26.2335 2.10499C27.9915 2.34199 29.415 2.83999 30.5385 3.96199C31.6605 5.08549 32.1585 6.50899 32.3955 8.26699C32.625 9.97699 32.625 12.1595 32.625 14.9165V21.0845C32.625 23.8415 32.625 26.0255 32.3955 27.734C32.1585 29.492 31.6605 30.9155 30.5385 32.039C29.415 33.161 27.9915 33.659 26.2335 33.896C24.5235 34.1255 22.341 34.1255 19.584 34.1255H16.416C13.659 34.1255 11.475 34.1255 9.7665 33.896C8.0085 33.659 6.585 33.161 5.4615 32.039C4.3395 30.9155 3.8415 29.492 3.6045 27.734C3.375 26.024 3.375 23.8415 3.375 21.0845V14.9165C3.375 12.1595 3.375 9.97549 3.6045 8.26699C3.8415 6.50899 4.3395 5.08549 5.4615 3.96199C6.585 2.83999 8.0085 2.34199 9.7665 2.10499C11.4765 1.87549 13.659 1.87549 16.416 1.87549ZM10.065 4.33549C8.556 4.53799 7.686 4.91899 7.05 5.55349C6.417 6.18799 6.036 7.05799 5.8335 8.56699C5.6265 10.109 5.6235 12.14 5.6235 15.0005V21.0005C5.6235 23.861 5.6265 25.8935 5.8335 27.4355C6.036 28.943 6.417 29.813 7.0515 30.4475C7.686 31.082 8.556 31.463 10.065 31.6655C11.607 31.8725 13.638 31.8755 16.4985 31.8755H19.4985C22.359 31.8755 24.3915 31.8725 25.9335 31.6655C27.441 31.463 28.311 31.082 28.9455 30.4475C29.58 29.813 29.961 28.943 30.1635 27.434C30.3705 25.8935 30.3735 23.861 30.3735 21.0005V15.0005C30.3735 12.14 30.3705 10.109 30.1635 8.56549C29.961 7.05799 29.58 6.18799 28.9455 5.55349C28.311 4.91899 27.441 4.53799 25.932 4.33549C24.3915 4.12849 22.359 4.12549 19.4985 4.12549H16.4985C13.638 4.12549 11.6085 4.12849 10.065 4.33549ZM10.875 15.0005C10.875 14.7021 10.9935 14.416 11.2045 14.205C11.4155 13.994 11.7016 13.8755 12 13.8755H24C24.2984 13.8755 24.5845 13.994 24.7955 14.205C25.0065 14.416 25.125 14.7021 25.125 15.0005C25.125 15.2989 25.0065 15.585 24.7955 15.796C24.5845 16.007 24.2984 16.1255 24 16.1255H12C11.7016 16.1255 11.4155 16.007 11.2045 15.796C10.9935 15.585 10.875 15.2989 10.875 15.0005ZM10.875 21.0005C10.875 20.7021 10.9935 20.416 11.2045 20.205C11.4155 19.994 11.7016 19.8755 12 19.8755H19.5C19.7984 19.8755 20.0845 19.994 20.2955 20.205C20.5065 20.416 20.625 20.7021 20.625 21.0005C20.625 21.2989 20.5065 21.585 20.2955 21.796C20.0845 22.007 19.7984 22.1255 19.5 22.1255H12C11.7016 22.1255 11.4155 22.007 11.2045 21.796C10.9935 21.585 10.875 21.2989 10.875 21.0005Z" fill="#CEAA86"/>
</svg>
