<svg width="40" height="41" viewBox="0 0 40 41" fill="none" xmlns="http://www.w3.org/2000/svg">
<path d="M20.4826 31.5273C20.1917 31.7266 19.8083 31.7266 19.5174 31.5273L20 30.8214L20.4826 31.5273ZM30.7911 15.8524C30.7911 13.8787 30.1715 12.5436 29.2642 11.6963C28.3462 10.839 27.033 10.3876 25.4806 10.3875C23.4438 10.3875 21.6674 11.6104 20.7674 13.4556C20.6241 13.7493 20.3265 13.9357 20 13.9357C19.6735 13.9357 19.3759 13.7493 19.2326 13.4556C18.3326 11.6104 16.5562 10.3875 14.5194 10.3875C11.5917 10.3877 9.20886 12.8617 9.20886 15.8524C9.20886 17.3701 9.84685 19.0169 10.897 20.6817C11.9409 22.3366 13.347 23.9378 14.7765 25.3466C16.2029 26.7523 17.6326 27.9475 18.7075 28.7919C19.2428 29.2124 19.6889 29.5444 20 29.771C20.3111 29.5444 20.7572 29.2124 21.2925 28.7919C22.3674 27.9475 23.7971 26.7523 25.2235 25.3466C26.653 23.9378 28.0591 22.3366 29.103 20.6817C30.1532 19.0169 30.7911 17.3701 30.7911 15.8524ZM32.5 15.8524C32.5 17.8275 31.6823 19.7986 30.5489 21.5954C29.4094 23.4018 27.9038 25.1061 26.4221 26.5663C24.9372 28.0295 23.4553 29.2664 22.3467 30.1373C21.7917 30.5733 21.3285 30.9188 21.0028 31.156C20.8399 31.2746 20.7116 31.3667 20.623 31.4292C20.579 31.4603 20.5448 31.4841 20.5212 31.5005C20.5095 31.5087 20.4998 31.515 20.4935 31.5193C20.4903 31.5215 20.4874 31.524 20.4856 31.5253L20.4836 31.5263V31.5273L20 30.8214L19.5164 31.5273V31.5263L19.5144 31.5253C19.5126 31.524 19.5097 31.5215 19.5065 31.5193C19.5002 31.515 19.4905 31.5087 19.4788 31.5005C19.4552 31.4841 19.421 31.4603 19.377 31.4292C19.2884 31.3667 19.1601 31.2746 18.9972 31.156C18.6715 30.9188 18.2083 30.5733 17.6533 30.1373C16.5447 29.2664 15.0628 28.0295 13.5779 26.5663C12.0962 25.1061 10.5906 23.4018 9.45115 21.5954C8.31771 19.7986 7.5 17.8275 7.5 15.8524C7.5 11.9686 10.5971 8.67695 14.5194 8.67676C16.7612 8.67676 18.7237 9.77279 20 11.4547C21.2763 9.77279 23.2388 8.67676 25.4806 8.67676C27.3531 8.67683 29.122 9.2234 30.4302 10.4449C31.7492 11.6767 32.5 13.5017 32.5 15.8524Z" fill="#424554"/>
</svg>
