<svg width="20" height="20" viewBox="0 0 20 20" fill="none" xmlns="http://www.w3.org/2000/svg">
<path d="M3.125 2.7085C2.77983 2.7085 2.5 2.98832 2.5 3.3335C2.5 3.67867 2.77983 3.9585 3.125 3.9585H16.875C17.2202 3.9585 17.5 3.67867 17.5 3.3335C17.5 2.98832 17.2202 2.7085 16.875 2.7085H3.125Z" fill="#9095AC"/>
<path d="M3.125 6.875C2.77983 6.875 2.5 7.15483 2.5 7.5C2.5 7.84517 2.77983 8.125 3.125 8.125H11.0417C11.3868 8.125 11.6667 7.84517 11.6667 7.5C11.6667 7.15483 11.3868 6.875 11.0417 6.875H3.125Z" fill="#9095AC"/>
<path d="M3.125 15.2085C2.77983 15.2085 2.5 15.4883 2.5 15.8335C2.5 16.1787 2.77983 16.4585 3.125 16.4585H11.0417C11.3868 16.4585 11.6667 16.1787 11.6667 15.8335C11.6667 15.4883 11.3868 15.2085 11.0417 15.2085H3.125Z" fill="#9095AC"/>
<path d="M2.5 11.6665C2.5 11.3213 2.77983 11.0415 3.125 11.0415H16.875C17.2202 11.0415 17.5 11.3213 17.5 11.6665C17.5 12.0117 17.2202 12.2915 16.875 12.2915H3.125C2.77983 12.2915 2.5 12.0117 2.5 11.6665Z" fill="#9095AC"/>
</svg>
