<svg width="35" height="36" viewBox="0 0 35 36" fill="none" xmlns="http://www.w3.org/2000/svg">
<path d="M32.2 7.85631C32.1822 7.85284 32.1641 7.84965 32.1457 7.8461C31.6616 7.75228 30.9839 7.62716 30.2121 7.5021C28.6551 7.24979 26.7633 7.006 25.3002 7.006C23.8372 7.006 21.9454 7.24979 20.3884 7.5021C19.6166 7.62716 18.9389 7.75228 18.4548 7.8461C18.4364 7.84965 18.4183 7.85284 18.4005 7.85631V28.1515C18.8652 28.0636 19.452 27.9572 20.1051 27.8514C21.6792 27.5963 23.6876 27.3328 25.3002 27.3328C26.9129 27.3328 28.9213 27.5963 30.4954 27.8514C31.1485 27.9572 31.7353 28.0636 32.2 28.1515V7.85631ZM14.4067 19.9628C14.9038 19.9628 15.3067 20.3722 15.3067 20.8774C15.3067 21.3825 14.9037 21.792 14.4067 21.792H5.25696C4.76001 21.7919 4.35701 21.3824 4.35695 20.8774C4.35695 20.3723 4.75998 19.9629 5.25696 19.9628H14.4067ZM29.6577 19.9628C30.1546 19.9629 30.5577 20.3723 30.5577 20.8774C30.5576 21.3824 30.1546 21.7918 29.6577 21.792H21.1176C20.6206 21.792 20.2177 21.3825 20.2176 20.8774C20.2176 20.3722 20.6206 19.9628 21.1176 19.9628H29.6577ZM14.4067 15.9593C14.9037 15.9593 15.3067 16.3688 15.3067 16.8739C15.3067 17.379 14.9038 17.7885 14.4067 17.7885H5.25696C4.75998 17.7884 4.35695 17.379 4.35695 16.8739C4.35702 16.3689 4.76002 15.9594 5.25696 15.9593H14.4067ZM29.6577 15.9593C30.1545 15.9594 30.5576 16.3689 30.5577 16.8739C30.5577 17.3789 30.1546 17.7883 29.6577 17.7885H21.1176C20.6206 17.7885 20.2176 17.379 20.2176 16.8739C20.2177 16.3688 20.6206 15.9593 21.1176 15.9593H29.6577ZM14.4077 11.9302C14.9046 11.9305 15.3077 12.3399 15.3077 12.8449C15.3075 13.3496 14.9044 13.7592 14.4077 13.7595H5.25696C4.76016 13.7594 4.3572 13.3497 4.35695 12.8449C4.35695 12.3398 4.76001 11.9304 5.25696 11.9302H14.4077ZM29.6577 11.9302C30.1546 11.9304 30.5577 12.3398 30.5577 12.8449C30.5574 13.3497 30.1545 13.7594 29.6577 13.7595H21.1176C20.6207 13.7595 20.2179 13.3498 20.2176 12.8449C20.2176 12.3397 20.6206 11.9302 21.1176 11.9302H29.6577ZM2.80002 28.1515C3.26471 28.0636 3.85146 27.9572 4.50461 27.8514C6.07863 27.5963 8.0872 27.3328 9.69975 27.3328C11.3123 27.3328 13.3208 27.5963 14.8949 27.8514C15.5483 27.9572 16.1357 28.0635 16.6005 28.1515V7.85835C16.3682 7.81311 16.0873 7.75862 15.7698 7.70115C14.835 7.53193 13.5916 7.32685 12.3425 7.18361C11.4086 7.07652 10.4879 7.006 9.69975 7.006C8.93572 7.00602 8.04754 7.07266 7.14236 7.17442C5.87941 7.31643 4.61437 7.52307 3.66186 7.69502C3.33161 7.75464 3.0399 7.81164 2.80002 7.85835V28.1515ZM34 29.2621C33.9999 29.5377 33.8782 29.7989 33.6675 29.9725C33.4832 30.1244 33.2481 30.1953 33.0146 30.1726L32.9142 30.1563H32.9122C32.9102 30.1558 32.9063 30.1551 32.9021 30.1542C32.8937 30.1524 32.8808 30.1496 32.8639 30.1461C32.8299 30.1389 32.7792 30.128 32.7133 30.1144C32.581 30.0873 32.3876 30.048 32.1457 30.0011C31.6615 29.9073 30.9839 29.7822 30.2121 29.6571C28.6551 29.4048 26.7633 29.162 25.3002 29.162C23.8372 29.162 21.9454 29.4048 20.3884 29.6571C19.6166 29.7822 18.939 29.9073 18.4548 30.0011C18.2128 30.048 18.0195 30.0873 17.8872 30.1144C17.8213 30.128 17.7706 30.1389 17.7366 30.1461C17.7197 30.1496 17.7068 30.1524 17.6984 30.1542C17.6942 30.1551 17.6903 30.1558 17.6883 30.1563H17.6863C17.5944 30.176 17.5001 30.1814 17.4071 30.1716L17.3137 30.1563H17.3117C17.3097 30.1559 17.3066 30.1551 17.3026 30.1542C17.2943 30.1525 17.2813 30.1496 17.2645 30.1461C17.2304 30.1389 17.1789 30.128 17.1128 30.1144C16.9805 30.0873 16.7871 30.048 16.5452 30.0011C16.061 29.9073 15.3834 29.7822 14.6116 29.6571C13.0547 29.4048 11.1627 29.162 9.69975 29.162C8.23694 29.1621 6.34566 29.4049 4.78888 29.6571C4.01729 29.7821 3.33946 29.9073 2.85526 30.0011C2.61329 30.048 2.41905 30.0873 2.28673 30.1144C2.22078 30.128 2.17003 30.1389 2.13606 30.1461C2.11909 30.1496 2.10628 30.1524 2.09789 30.1542C2.09383 30.1551 2.09082 30.1559 2.08885 30.1563H2.08584C1.82055 30.2132 1.54417 30.1459 1.33349 29.9725C1.12279 29.7989 1.0001 29.5377 1 29.2621V7.10603C1.00005 6.67384 1.29807 6.30018 1.71418 6.21081H1.71619C1.71756 6.21051 1.71977 6.21031 1.72222 6.20979C1.72761 6.20864 1.73615 6.20684 1.74632 6.20468C1.76665 6.20039 1.79633 6.19429 1.83472 6.18631C1.91187 6.17027 2.02456 6.14646 2.1672 6.11792C2.45233 6.06087 2.85878 5.98241 3.34645 5.89437C4.32035 5.71855 5.62714 5.50444 6.94348 5.35642C7.88282 5.25079 8.84378 5.17678 9.69975 5.17676C10.582 5.17676 11.5759 5.25568 12.5434 5.36662C13.8445 5.51582 15.1301 5.72638 16.0862 5.89947C16.5648 5.98612 16.963 6.06402 17.2424 6.11996C17.3444 6.1404 17.431 6.1579 17.4995 6.17202C17.5095 6.16996 17.5199 6.1681 17.5306 6.16589C17.6687 6.13756 17.8693 6.09777 18.1183 6.04952C18.6159 5.95309 19.3116 5.8239 20.1051 5.69531C21.6792 5.44024 23.6876 5.17676 25.3002 5.17676C26.9128 5.17676 28.9213 5.44024 30.4954 5.69531C31.2889 5.8239 31.9845 5.95309 32.4822 6.04952C32.7312 6.09777 32.9318 6.13756 33.0699 6.16589C33.1386 6.18001 33.192 6.19188 33.2286 6.19958C33.2468 6.2034 33.2611 6.20569 33.2708 6.20775C33.2755 6.20875 33.2792 6.21026 33.2818 6.21081H33.2858C33.7018 6.30029 34 6.67393 34 7.10603V29.2621Z" fill="#1B1C1E"/>
</svg>
