<svg width="20" height="20" viewBox="0 0 20 20" fill="none" xmlns="http://www.w3.org/2000/svg">
<path d="M12.5 5.81553C12.4998 5.35471 12.2463 4.97262 11.7266 4.68174C11.1936 4.38358 10.4382 4.22477 9.64746 4.25303C8.85732 4.28128 8.10447 4.49341 7.56934 4.85654C7.05259 5.20722 6.75 5.6846 6.75 6.3165C6.75004 6.78953 6.8473 7.12403 6.98926 7.37217C7.13149 7.62074 7.34117 7.82197 7.62305 7.99424C8.22035 8.35915 9.04018 8.54275 10.0166 8.7706C10.8655 8.96869 11.8384 9.20219 12.6279 9.6915H16.625C16.9702 9.6915 17.25 9.97132 17.25 10.3165C17.25 10.6617 16.9702 10.9415 16.625 10.9415H13.8262C14.0964 11.4472 14.25 12.0641 14.25 12.8165C14.2499 14.0232 13.7121 14.9508 12.9141 15.5685C12.1335 16.1725 11.1239 16.4681 10.1475 16.503C9.17221 16.5379 8.16226 16.3147 7.37598 15.7999C6.57124 15.2728 6 14.4331 6 13.3165C6 12.9713 6.27982 12.6915 6.625 12.6915C6.97018 12.6915 7.25 12.9713 7.25 13.3165C7.25 13.9497 7.554 14.4227 8.06152 14.755C8.58768 15.0993 9.32808 15.2817 10.1025 15.254C10.8758 15.2263 11.6166 14.9916 12.1484 14.5802C12.6627 14.1822 12.9999 13.6094 13 12.8165C13 11.8538 12.6848 11.31 12.2305 10.9415H3.625C3.27982 10.9415 3 10.6617 3 10.3165C3 9.97132 3.27982 9.6915 3.625 9.6915H8.53223C7.98161 9.53771 7.43529 9.34457 6.9707 9.06064C6.54966 8.80331 6.17315 8.46118 5.90527 7.99326C5.63718 7.52472 5.50004 6.96812 5.5 6.3165C5.5 5.19855 6.07246 4.3623 6.86816 3.82236C7.64545 3.29503 8.64286 3.03833 9.60254 3.004C10.5616 2.96971 11.5565 3.15495 12.3359 3.59092C13.1282 4.03414 13.7498 4.77692 13.75 5.81553C13.75 6.1607 13.4702 6.44053 13.125 6.44053C12.7798 6.44053 12.5 6.1607 12.5 5.81553Z" fill="#9095AC"/>
</svg>
