<svg width="20" height="20" viewBox="0 0 20 20" fill="none" xmlns="http://www.w3.org/2000/svg">
<path d="M3.75203 5.52311C4.50095 5.52311 5.10806 4.91599 5.10806 4.16708C5.10806 3.41815 4.50095 2.81104 3.75203 2.81104C3.00311 2.81104 2.396 3.41815 2.396 4.16708C2.396 4.91599 3.00311 5.52311 3.75203 5.52311Z" fill="#9095AC"/>
<path d="M7.50049 4.1665C7.50049 3.82133 7.7803 3.5415 8.12549 3.5415H16.8755C17.2206 3.5415 17.5005 3.82133 17.5005 4.1665C17.5005 4.51168 17.2206 4.7915 16.8755 4.7915H8.12549C7.7803 4.7915 7.50049 4.51168 7.50049 4.1665Z" fill="#9095AC"/>
<path d="M8.12549 9.375C7.7803 9.375 7.50049 9.65483 7.50049 10C7.50049 10.3452 7.7803 10.625 8.12549 10.625H16.8755C17.2206 10.625 17.5005 10.3452 17.5005 10C17.5005 9.65483 17.2206 9.375 16.8755 9.375H8.12549Z" fill="#9095AC"/>
<path d="M8.12549 15.2085C7.7803 15.2085 7.50049 15.4883 7.50049 15.8335C7.50049 16.1787 7.7803 16.4585 8.12549 16.4585H16.8755C17.2206 16.4585 17.5005 16.1787 17.5005 15.8335C17.5005 15.4883 17.2206 15.2085 16.8755 15.2085H8.12549Z" fill="#9095AC"/>
<path d="M5.10758 9.99988C5.10758 10.7486 4.50057 11.3557 3.75179 11.3557C3.003 11.3557 2.396 10.7486 2.396 9.99988C2.396 9.25113 3.003 8.64404 3.75179 8.64404C4.50057 8.64404 5.10758 9.25113 5.10758 9.99988Z" fill="#9095AC"/>
<path d="M3.75179 17.1892C4.50058 17.1892 5.10759 16.5821 5.10759 15.8334C5.10759 15.0846 4.50058 14.4775 3.75179 14.4775C3.003 14.4775 2.396 15.0846 2.396 15.8334C2.396 16.5821 3.003 17.1892 3.75179 17.1892Z" fill="#9095AC"/>
</svg>
