<svg width="24" height="24" viewBox="0 0 24 24" fill="none" xmlns="http://www.w3.org/2000/svg">
<path d="M18 11C18 10.0808 17.8195 9.17052 17.4678 8.32129C17.116 7.47211 16.6001 6.70075 15.9502 6.05078C15.3002 5.40075 14.528 4.885 13.6787 4.5332C12.8295 4.18146 11.9192 4 11 4C10.0808 4.00003 9.17053 4.18144 8.32129 4.5332C7.47205 4.88499 6.70077 5.40079 6.05078 6.05078C4.73804 7.36353 4.00005 9.1435 4 11C4 12.8566 4.73799 14.6374 6.05078 15.9502C7.3635 17.2628 9.14364 17.9999 11 18C12.8566 18 14.6374 17.263 15.9502 15.9502C16.6002 15.3002 17.116 14.528 17.4678 13.6787C17.8195 12.8295 18 11.9191 18 11ZM20 11C20 12.1819 19.7677 13.3524 19.3154 14.4443C18.9913 15.227 18.5569 15.957 18.0303 16.6162L21.707 20.293C22.0976 20.6835 22.0976 21.3165 21.707 21.707C21.3165 22.0976 20.6835 22.0976 20.293 21.707L16.6162 18.0303C15.029 19.2983 13.0512 20 11 20C8.61307 19.9999 6.32356 19.0521 4.63574 17.3643C2.948 15.6764 2 13.3869 2 11C2.00005 8.61307 2.94792 6.32356 4.63574 4.63574C5.47138 3.8001 6.46388 3.13785 7.55566 2.68555C8.64756 2.23327 9.81815 2.00003 11 2C12.1819 2 13.3524 2.23324 14.4443 2.68555C15.5362 3.13781 16.5286 3.80011 17.3643 4.63574C18.1999 5.47143 18.8631 6.4638 19.3154 7.55566C19.7677 8.64756 20 9.81815 20 11Z" fill="#1B1C1E"/>
</svg>
