<svg width="35" height="36" viewBox="0 0 35 36" fill="none" xmlns="http://www.w3.org/2000/svg">
<path d="M28.6279 17.1687V3.94051H26.2077V13.4059C26.2077 13.7629 25.989 14.0845 25.6541 14.2209C25.3191 14.3572 24.9336 14.2809 24.6778 14.028L21.9817 11.3617L19.2867 14.028C19.0309 14.2808 18.6454 14.3571 18.3104 14.2209C17.9754 14.0846 17.7568 13.7629 17.7568 13.4059V3.94051H5.08003V9.23177H6.47502C6.96946 9.23182 7.37037 9.62663 7.37037 10.1136C7.37037 10.6007 6.96946 10.9955 6.47502 10.9955H5.08003V16.2868H6.47502C6.96946 16.2868 7.37037 16.6816 7.37037 17.1687C7.37037 17.6557 6.96946 18.0505 6.47502 18.0505H5.08003V23.3418H6.47502C6.96946 23.3418 7.37037 23.7366 7.37037 24.2237C7.37037 24.7107 6.96946 25.1055 6.47502 25.1055H5.08003V30.3968H15.7093C16.2038 30.3968 16.6047 30.7916 16.6047 31.2787C16.6047 31.7657 16.2038 32.1605 15.7093 32.1605H4.18468C3.6904 32.1603 3.28934 31.7656 3.28934 31.2787V25.1055H1.89535C1.40086 25.1055 1 24.7107 1 24.2237C1 23.7366 1.40086 23.3418 1.89535 23.3418H3.28934V18.0505H1.89535C1.40086 18.0505 1 17.6557 1 17.1687C1 16.6816 1.40086 16.2868 1.89535 16.2868H3.28934V10.9955H1.89535C1.40086 10.9955 1 10.6007 1 10.1136C1 9.6266 1.40086 9.23177 1.89535 9.23177H3.28934V3.05863C3.28934 2.57174 3.6904 2.177 4.18468 2.17676H29.5233C30.0177 2.17676 30.4186 2.57159 30.4186 3.05863V17.1687C30.4186 17.6557 30.0177 18.0505 29.5233 18.0505C29.0288 18.0505 28.6279 17.6557 28.6279 17.1687ZM19.5475 11.2711L21.3482 9.49161L21.4132 9.43255C21.5726 9.30333 21.7734 9.23185 21.9817 9.23177C22.2198 9.23177 22.4483 9.3255 22.6163 9.49161L24.417 11.2711V3.94051H19.5475V11.2711Z" fill="#1B1C1E"/>
<path d="M26.0648 33.2949V28.1345H20.8256C20.3311 28.1345 19.9302 27.7397 19.9302 27.2527C19.9303 26.7657 20.3311 26.3708 20.8256 26.3708H26.0648V21.2006C26.0648 20.7135 26.4656 20.3187 26.9601 20.3187C27.4546 20.3188 27.8555 20.7136 27.8555 21.2006V26.3708H33.1047C33.5991 26.3708 33.9999 26.7657 34 27.2527C34 27.7397 33.5991 28.1345 33.1047 28.1345H27.8555V33.2949C27.8555 33.7819 27.4546 34.1767 26.9601 34.1768C26.4656 34.1768 26.0648 33.7819 26.0648 33.2949Z" fill="#1B1C1E"/>
</svg>
