<svg width="20" height="20" viewBox="0 0 20 20" fill="none" xmlns="http://www.w3.org/2000/svg">
<path d="M4.89797 3.50001C4.89797 3.2575 4.75768 3.03688 4.53806 2.93402C4.31844 2.83115 4.05915 2.86462 3.87285 3.01987L2.37285 4.26987C2.10768 4.49085 2.07185 4.88495 2.29283 5.15013C2.5138 5.4153 2.90791 5.45113 3.17308 5.23015L3.64796 4.83441V8.50004C3.64796 8.84521 3.92778 9.12504 4.27296 9.12504C4.61814 9.12504 4.89797 8.84521 4.89797 8.50004V3.50001Z" fill="#9095AC"/>
<path d="M8.95801 5.2085C8.61284 5.2085 8.33301 5.48832 8.33301 5.8335C8.33301 6.17867 8.61284 6.4585 8.95801 6.4585H16.8747C17.2198 6.4585 17.4997 6.17867 17.4997 5.8335C17.4997 5.48832 17.2198 5.2085 16.8747 5.2085H8.95801Z" fill="#9095AC"/>
<path d="M8.95801 13.5415C8.61284 13.5415 8.33301 13.8213 8.33301 14.1665C8.33301 14.5117 8.61284 14.7915 8.95801 14.7915H16.8747C17.2198 14.7915 17.4997 14.5117 17.4997 14.1665C17.4997 13.8213 17.2198 13.5415 16.8747 13.5415H8.95801Z" fill="#9095AC"/>
<path d="M3.63038 12.2056C3.54199 12.255 3.43283 12.3495 3.31221 12.5551C3.13763 12.8529 2.7547 12.9528 2.45694 12.7782C2.15916 12.6036 2.0593 12.2207 2.23389 11.9229C2.43939 11.5724 2.6954 11.296 3.02126 11.1141C3.34679 10.9325 3.69194 10.8732 4.02906 10.875C4.47948 10.8774 4.94746 11.0296 5.31 11.3595C5.68297 11.6988 5.90342 12.1895 5.90342 12.7783V12.9645C5.90342 12.9845 5.90247 13.0043 5.90057 13.0241C5.79921 14.0815 4.95058 14.593 4.40912 14.9194L4.40823 14.92C4.36959 14.9432 4.33253 14.9655 4.29742 14.9871C3.76268 15.315 3.488 15.5303 3.41695 15.875H5.39805C5.74323 15.875 6.02305 16.1548 6.02305 16.5C6.02305 16.8451 5.74323 17.125 5.39805 17.125H2.77305C2.42787 17.125 2.14805 16.8451 2.14805 16.5V16.0737C2.14805 14.8395 3.05837 14.2806 3.64395 13.9215C4.31773 13.5083 4.60548 13.3115 4.65342 12.9306V12.7783C4.65342 12.5173 4.56398 12.3706 4.46883 12.284C4.36324 12.188 4.20489 12.126 4.02241 12.125C3.8372 12.124 3.71908 12.1561 3.63038 12.2056Z" fill="#9095AC"/>
</svg>
