<svg width="40" height="40" viewBox="0 0 40 40" fill="none" xmlns="http://www.w3.org/2000/svg">
<path d="M25.5973 8.68174C25.9153 8.42217 26.3843 8.44069 26.6809 8.73705L31.263 13.3181C31.4148 13.4699 31.5 13.6762 31.5001 13.8909C31.5001 14.1057 31.4148 14.3117 31.263 14.4636L14.4638 31.2628C14.3119 31.4147 14.1058 31.5 13.891 31.5H9.30992C8.86261 31.5 8.5 31.1374 8.5 30.6901V26.109L8.50375 26.0293C8.5221 25.8438 8.60419 25.6692 8.73716 25.5362L25.5364 8.73705L25.5973 8.68174ZM10.1198 26.4436V29.8802H13.5564L29.5447 13.8909L26.1082 10.4544L10.1198 26.4436Z" fill="#424554"/>
<path d="M20.955 13.3188C21.2713 13.0025 21.7842 13.0025 22.1005 13.3188L26.6816 17.8998C26.9979 18.2161 26.9979 18.7291 26.6816 19.0454C26.3653 19.3616 25.8524 19.3616 25.5361 19.0454L20.955 14.4643C20.6387 14.148 20.6387 13.6351 20.955 13.3188Z" fill="#424554"/>
</svg>
