<svg width="13" height="13" viewBox="0 0 13 13" fill="none" xmlns="http://www.w3.org/2000/svg">
<path d="M6.25426 12.6563C5.70198 12.6563 5.25426 12.2085 5.25426 11.6563V1C5.25426 0.447715 5.70198 0 6.25426 0H6.40199C6.95427 0 7.40199 0.447715 7.40199 1V11.6563C7.40199 12.2085 6.95427 12.6563 6.40199 12.6563H6.25426ZM1 7.40199C0.447715 7.40199 0 6.95427 0 6.40199V6.25426C0 5.70198 0.447715 5.25426 1 5.25426H11.6562C12.2085 5.25426 12.6562 5.70198 12.6562 6.25426V6.40199C12.6562 6.95427 12.2085 7.40199 11.6562 7.40199H1Z" fill="#1B1C1E"/>
</svg>
