<svg width="159" height="34" viewBox="0 0 159 34" fill="none" xmlns="http://www.w3.org/2000/svg">
<path fill-rule="evenodd" clip-rule="evenodd" d="M37.4965 15.7196H34.4243V10.8003L37.4479 10.812C38.9866 10.812 39.7922 12.035 39.7922 13.2443C39.7922 14.2823 38.994 15.7196 37.4965 15.7196ZM33.404 8.56348C32.655 8.56348 32.208 9.00643 32.208 9.74718V22.5217C32.208 23.2268 32.6264 23.648 33.3273 23.648C34.016 23.648 34.4275 23.2268 34.4275 22.5217V17.965L37.5077 17.9608C40.472 17.947 42.0721 15.4892 42.0721 13.184C42.0721 10.5932 39.9769 8.56348 37.3014 8.56348H33.404Z" fill="#938B7F"/>
<path fill-rule="evenodd" clip-rule="evenodd" d="M47.0047 21.4158V9.66916C47.0047 8.9651 46.5863 8.54395 45.8854 8.54395C45.1962 8.54395 44.7852 8.9651 44.7852 9.66916V22.1374C44.7852 23.0978 45.2766 23.6476 46.134 23.6476H52.7365C53.4374 23.6476 53.8564 23.227 53.8564 22.5213C53.8564 21.8295 53.4374 21.4158 52.7365 21.4158H47.0047Z" fill="#938B7F"/>
<path fill-rule="evenodd" clip-rule="evenodd" d="M79.5735 20.4993C78.8668 21.2097 77.5285 21.7058 76.3187 21.7058C73.2714 21.7058 71.6771 18.8742 71.6771 16.0782C71.6771 13.4412 73.1233 10.6042 76.2992 10.6042C77.3783 10.6042 78.8551 10.9919 79.5941 11.7358C79.8258 11.965 80.2135 12.0857 80.4769 12.0857C81.1043 12.0857 81.5772 11.5779 81.5772 10.9026C81.5772 10.5202 81.4058 10.181 81.0831 9.90763C79.7554 8.66224 77.7713 8.21875 76.3568 8.21875C71.7268 8.21875 69.3047 12.2399 69.3047 16.2127C69.3047 19.9702 71.4756 24.0142 76.242 24.0142C77.9897 24.0142 79.8184 23.3639 81.0212 22.3099C81.3016 22.0536 81.4434 21.7112 81.4434 21.2927C81.4434 20.6195 81.0011 20.1675 80.3431 20.1675C80.0485 20.1675 79.7967 20.2759 79.5735 20.4993Z" fill="#938B7F"/>
<path fill-rule="evenodd" clip-rule="evenodd" d="M86.492 21.417V16.9529H91.5896C92.2905 16.9529 92.7089 16.5461 92.7089 15.8659C92.7089 15.1486 92.2905 14.7211 91.5896 14.7211H86.492V10.8153H92.5074C93.2088 10.8153 93.6277 10.4015 93.6277 9.70919C93.6277 9.00514 93.2088 8.58398 92.5074 8.58398H85.4679C84.7194 8.58398 84.2725 9.06204 84.2725 9.86341V22.3689C84.2725 23.1989 84.4629 23.6488 85.4679 23.6488H92.6608C93.4336 23.6488 93.8948 23.2356 93.8948 22.5422C93.8948 22.204 93.7748 21.417 92.6608 21.417H86.492Z" fill="#938B7F"/>
<path fill-rule="evenodd" clip-rule="evenodd" d="M102.531 15.1201L101.952 14.8154C100.65 14.1358 99.4206 13.4939 99.4206 12.6564C99.4206 11.4733 100.487 10.6708 101.484 10.6644H101.512C102.821 10.6644 103.799 11.2063 104.42 11.6844L104.519 11.7476C104.782 11.9178 105.055 12.0943 105.379 12.0943C105.982 12.0943 106.472 11.5722 106.472 10.9303C106.472 10.3879 106.103 10.0045 105.766 9.71737C105.467 9.48658 103.868 8.33691 101.792 8.33691C98.972 8.33691 97.0016 10.1444 97.0016 12.733C97.0016 14.9648 99.2381 16.1145 101.273 17.1599C101.588 17.3237 101.92 17.4705 102.248 17.6135C103.627 18.2187 104.42 18.6515 104.473 19.8474C104.541 21.3747 101.591 22.6307 98.8832 20.9673C98.5806 20.7818 98.2727 20.6701 97.9776 20.6701C97.3058 20.6701 96.9043 21.0694 96.9043 21.7384C96.9043 22.0686 97.0275 22.5435 97.6205 22.9333C98.688 23.615 99.8887 23.9606 101.189 23.9606C104.855 23.9606 106.873 22.4648 106.873 19.7507C106.873 17.1849 105.051 16.3266 103.445 15.5699C103.133 15.4227 102.823 15.2769 102.531 15.1201Z" fill="#938B7F"/>
<path fill-rule="evenodd" clip-rule="evenodd" d="M110.218 8.64648C109.469 8.64648 109.041 9.05647 109.041 9.77276C109.041 10.4651 109.481 10.8783 110.218 10.8783H113.841V22.5095C113.841 23.2742 114.267 23.7305 114.98 23.7305C115.669 23.7305 116.08 23.2742 116.08 22.5095V10.8783H119.723C120.436 10.8783 120.862 10.4651 120.862 9.77276C120.862 9.06764 120.436 8.64648 119.723 8.64648H110.218Z" fill="#938B7F"/>
<path fill-rule="evenodd" clip-rule="evenodd" d="M128.661 17.3795H124.983L126.846 12.2576L128.661 17.3795ZM128.329 9.80195C128.061 9.06865 127.53 8.66504 126.833 8.66504C126.135 8.66504 125.604 9.06865 125.335 9.8062L121.007 22.1277C120.961 22.2654 120.909 22.4483 120.909 22.6435C120.909 23.2938 121.321 23.7299 121.933 23.7299C122.264 23.7299 122.867 23.5996 123.183 22.7232L124.281 19.6082H129.39L130.773 22.9998C130.949 23.4704 131.33 23.7299 131.847 23.7299C132.472 23.7299 132.909 23.2906 132.909 22.6616C132.909 22.5478 132.895 22.326 132.804 22.1059L128.329 9.80195Z" fill="#938B7F"/>
<path fill-rule="evenodd" clip-rule="evenodd" d="M140.687 15.7834H137.664V10.8789H140.688C142.395 10.8789 143.032 12.371 143.032 13.3112C143.032 14.2673 142.395 15.7834 140.687 15.7834ZM142.551 17.5248C144.439 16.7612 145.305 14.8341 145.305 13.2526C145.305 11.0192 143.631 8.64648 140.53 8.64648H136.943C135.903 8.64648 135.44 9.17718 135.44 10.3657V22.4463C135.44 23.6055 136.223 23.7305 136.56 23.7305C137.248 23.7305 137.66 23.2524 137.66 22.4516V18.0135H140.216L143.167 23.1375C143.306 23.4162 143.596 23.7501 144.185 23.7501C144.798 23.7501 145.209 23.329 145.209 22.7015C145.209 22.4234 145.135 22.1277 144.983 21.8241L142.551 17.5248Z" fill="#938B7F"/>
<path fill-rule="evenodd" clip-rule="evenodd" d="M148.356 8.64648C147.607 8.64648 147.179 9.05647 147.179 9.77276C147.179 10.4651 147.619 10.8783 148.356 10.8783H151.979V22.5095C151.979 23.2742 152.405 23.7305 153.118 23.7305C153.807 23.7305 154.218 23.2742 154.218 22.5095V10.8783H157.861C158.574 10.8783 158.999 10.4651 158.999 9.77276C158.999 9.06764 158.574 8.64648 157.861 8.64648H148.356Z" fill="#938B7F"/>
<path fill-rule="evenodd" clip-rule="evenodd" d="M63.5602 17.3328H59.8828L61.7464 12.2109L63.5602 17.3328ZM63.2303 9.75507C62.9637 9.02177 62.4316 8.61816 61.7339 8.61816C61.0357 8.61816 60.5046 9.02177 60.2359 9.75933L55.9084 22.0797C55.8624 22.2164 55.8105 22.3993 55.8105 22.5955C55.8105 23.2459 56.2221 23.6819 56.8346 23.6819C57.1663 23.6819 57.7693 23.5517 58.0835 22.6753L59.1822 19.5602H64.2914L65.6741 22.9518C65.8503 23.4224 66.2317 23.6819 66.7485 23.6819C67.3737 23.6819 67.8101 23.2427 67.8101 22.6147C67.8101 22.5009 67.7963 22.2781 67.7054 22.0579L63.2303 9.75507Z" fill="#938B7F"/>
<path fill-rule="evenodd" clip-rule="evenodd" d="M12.9955 24.8279C12.1666 24.8199 10.4448 24.4988 9.11078 24.1994C8.6818 24.1005 8.21789 24.2361 7.90263 24.5471L2.18718 30.1918C2.18453 23.4964 2.18295 14.0331 2.18506 13.7896C2.25118 7.79715 7.1404 2.92302 13.0822 2.92302H13.1547C16.0376 2.94163 18.7617 4.11363 20.8252 6.22101C22.8824 8.31934 24.0011 11.0627 23.9757 13.9459C23.9234 19.8442 18.94 24.8279 13.0939 24.8279H12.9955ZM13.1666 0.9375H13.082C6.06371 0.9375 0.290598 6.6933 0.212312 13.7652C0.209138 14.0566 0.212312 25.1673 0.21337 29.9127L0.213899 31.7207C0.213899 32.0977 0.363595 32.4444 0.636012 32.6981C0.885683 32.9321 1.21047 33.0618 1.55059 33.0618C1.90129 33.0618 2.23242 32.9246 2.48421 32.6763L9.03173 26.2127C10.0928 26.4398 11.9299 26.8008 12.9789 26.8109H13.0936C20.0003 26.8109 25.8866 20.9259 25.948 13.9614C25.9781 10.5496 24.6578 7.30483 22.231 4.82734C19.7967 2.34242 16.5779 0.960898 13.1666 0.9375Z" fill="#938B7F"/>
<path fill-rule="evenodd" clip-rule="evenodd" d="M15.066 8.75562C14.811 8.8322 14.6005 9.00289 14.4735 9.23634C14.3461 9.47138 14.3175 9.74204 14.3931 9.99835C14.4682 10.2541 14.638 10.4658 14.8718 10.5934C16.0821 11.2549 16.8337 12.5264 16.8337 13.91C16.8337 15.9908 15.1501 17.6823 13.0808 17.6823C11.012 17.6823 9.32836 15.9908 9.32836 13.91C9.32836 12.6109 9.98162 11.4182 11.0755 10.7221C11.5373 10.4259 11.6753 9.80639 11.3823 9.34056C11.24 9.11456 11.0184 8.95822 10.7587 8.89973C10.5 8.84443 10.2334 8.88963 10.0097 9.03161C8.33656 10.0978 7.33789 11.9212 7.33789 13.91C7.33789 17.0937 9.91444 19.6839 13.0808 19.6839C16.2477 19.6839 18.8242 17.0937 18.8242 13.91C18.8242 11.7931 17.6743 9.8484 15.8229 8.83645C15.5902 8.70883 15.3209 8.67905 15.066 8.75562Z" fill="#938B7F"/>
<path fill-rule="evenodd" clip-rule="evenodd" d="M11.9648 8.44609V12.6896C11.9648 13.2415 12.4113 13.6903 12.9598 13.6903C13.5084 13.6903 13.9548 13.2415 13.9548 12.6896V8.44609C13.9548 7.89412 13.5084 7.44531 12.9598 7.44531C12.4113 7.44531 11.9648 7.89412 11.9648 8.44609Z" fill="#938B7F"/>
</svg>
