<svg width="35" height="36" viewBox="0 0 35 36" fill="none" xmlns="http://www.w3.org/2000/svg">
<path d="M16.4919 33.1768C16.979 33.1768 17.374 32.7818 17.374 32.2946C17.374 31.8075 16.9791 31.4125 16.4919 31.4125L3.76423 31.4125L3.76423 3.94099L19.3902 3.94099V9.10765C19.3902 9.59483 19.7852 9.98977 20.2724 9.98977L25.187 9.98977V13.1402C25.187 13.6274 25.5819 14.0223 26.0691 14.0223C26.5563 14.0223 26.9512 13.6273 26.9512 13.1402V9.10765C26.9512 8.88021 26.8634 8.66148 26.7061 8.49726L20.9093 2.44848C20.743 2.27487 20.5128 2.17676 20.2724 2.17676L2.88211 2.17676C2.64816 2.17676 2.42337 2.26927 2.25794 2.4347C2.09251 2.60013 2 2.82492 2 3.05887L2 32.2946C2 32.7818 2.39494 33.1768 2.88212 33.1768L16.4919 33.1768ZM21.1545 5.2553L24.0017 8.22554L21.1545 8.22554V5.2553ZM12.9634 11.502C13.4506 11.502 13.8455 11.107 13.8455 10.6198C13.8455 10.1327 13.4506 9.73773 12.9634 9.73773L6.91463 9.73773C6.42746 9.73774 6.03252 10.1327 6.03252 10.6198C6.03252 11.107 6.42746 11.502 6.91464 11.502H12.9634ZM15.9878 16.0385C16.475 16.0385 16.8699 15.6436 16.8699 15.1564C16.8699 14.6693 16.475 14.2743 15.9878 14.2743L6.91464 14.2743C6.42746 14.2743 6.03252 14.6693 6.03252 15.1564C6.03252 15.6436 6.42746 16.0385 6.91464 16.0385L15.9878 16.0385Z" fill="#1B1C1E"/>
<path d="M24.0528 15.2825C28.9942 15.2825 33 19.2882 33 24.2296C33 29.171 28.9942 33.1768 24.0528 33.1768C19.1115 33.1768 15.1057 29.171 15.1057 24.2296C15.1057 19.2882 19.1115 15.2825 24.0528 15.2825ZM24.935 23.3475H31.1797C30.7801 20.0859 28.1966 17.5013 24.935 17.1018V23.3475ZM16.8699 24.2296C16.8699 28.1966 20.0858 31.4125 24.0528 31.4125C27.7211 31.4125 30.7447 28.6625 31.1797 25.1117H24.0528C23.5657 25.1117 23.1707 24.7168 23.1707 24.2296V17.1018C19.6199 17.5367 16.8699 20.5613 16.8699 24.2296Z" fill="#1B1C1E"/>
</svg>
