<svg width="24" height="24" viewBox="0 0 24 24" fill="none" xmlns="http://www.w3.org/2000/svg">
<path d="M12.0001 2C12.4334 2 12.8174 2.29234 12.9513 2.72346L14.9718 9.23052H21.5109C21.944 9.2306 22.3282 9.52196 22.4621 9.95296C22.5959 10.384 22.4491 10.8565 22.0988 11.123L16.8078 15.1439L18.8292 21.652C18.963 22.083 18.8164 22.5556 18.466 22.822C18.1155 23.0884 17.6407 23.0884 17.2902 22.822L12.0001 18.8L6.71011 22.822C6.35963 23.0884 5.88478 23.0884 5.53433 22.822C5.18389 22.5556 5.03725 22.083 5.17105 21.652L7.19155 15.1439L1.90151 11.123C1.55119 10.8565 1.40439 10.384 1.53823 9.95296C1.67212 9.52196 2.05629 9.2306 2.4894 9.23052H9.02847L11.049 2.72346C11.1828 2.29234 11.5669 2 12.0001 2ZM10.7062 10.5998C10.5723 11.0309 10.1882 11.3232 9.75503 11.3232H5.56753L8.95522 13.8983C9.30569 14.1647 9.45233 14.6372 9.31851 15.0683L8.02358 19.2353L11.4123 16.6603L11.549 16.5724C11.8794 16.3976 12.2814 16.4272 12.588 16.6603L15.9757 19.2353L14.6818 15.0683C14.548 14.6372 14.6946 14.1647 15.0451 13.8983L18.4328 11.3232H14.2453C13.812 11.3232 13.428 11.0309 13.2941 10.5998L12.0001 6.43171L10.7062 10.5998Z" fill="#9095AC"/>
</svg>
