<svg width="40" height="41" viewBox="0 0 40 41" fill="none" xmlns="http://www.w3.org/2000/svg">
<path d="M20 7.67676C20.3598 7.67676 20.6789 7.91021 20.7901 8.25503L23.4758 16.5862H32.1692C32.5288 16.5862 32.848 16.8199 32.9593 17.1645C33.0705 17.5093 32.9486 17.887 32.6575 18.1002L25.6242 23.2484L28.3108 31.5815C28.4219 31.9263 28.3 32.3041 28.009 32.5172C27.718 32.7299 27.3242 32.73 27.0333 32.5172L20 27.368L12.9667 32.5172C12.6758 32.73 12.282 32.7299 11.991 32.5172C11.7 32.3041 11.5781 31.9263 11.6892 31.5815L14.3749 23.2484L7.34251 18.1002C7.05143 17.887 6.9295 17.5093 7.04068 17.1645C7.15198 16.8199 7.47115 16.5862 7.83082 16.5862H16.5242L19.2099 8.25503L19.2608 8.13104C19.4012 7.85532 19.6852 7.67676 20 7.67676ZM17.917 17.6817C17.8058 18.0265 17.4867 18.26 17.1269 18.26H10.3858L15.8398 22.2527C16.1308 22.4657 16.2527 22.8436 16.1416 23.1884L14.0577 29.6491L19.5117 25.6564L19.6251 25.5867C19.8996 25.4466 20.2335 25.4699 20.4883 25.6564L25.9414 29.6491L23.8584 23.1884C23.7473 22.8436 23.8692 22.4657 24.1602 22.2527L29.6142 18.26H22.8731C22.5133 18.26 22.1942 18.0265 22.083 17.6817L20 11.2219L17.917 17.6817Z" fill="#424554"/>
</svg>
