<svg width="35" height="36" viewBox="0 0 35 36" fill="none" xmlns="http://www.w3.org/2000/svg">
<path d="M33.1316 31.4787C33.6112 31.4787 34 31.8588 34 32.3277C33.9998 32.7965 33.6111 33.1768 33.1316 33.1768H1.86842C1.38891 33.1768 1.00017 32.7965 1 32.3277C1 31.8588 1.38881 31.4787 1.86842 31.4787H33.1316ZM10.2454 9.40058C10.7249 9.40071 11.1138 9.78079 11.1138 10.2496V28.4748C11.1138 28.9436 10.7249 29.3237 10.2454 29.3238H3.06541C2.58579 29.3238 2.19699 28.9437 2.19699 28.4748V10.2496C2.19699 9.78071 2.58579 9.40058 3.06541 9.40058H10.2454ZM21.3148 3.17676C21.7943 3.17699 22.1833 3.55703 22.1833 4.02581V28.4748C22.1833 28.9435 21.7943 29.3236 21.3148 29.3238H14.1339C13.6545 29.3236 13.2655 28.9435 13.2655 28.4748V4.02581C13.2655 3.55704 13.6545 3.177 14.1339 3.17676H21.3148ZM32.3833 13.9936C32.863 13.9936 33.2518 14.3737 33.2518 14.8426V28.4748C33.2518 28.9437 32.863 29.3238 32.3833 29.3238H25.2034C24.7239 29.3237 24.3349 28.9436 24.3349 28.4748V14.8426C24.3349 14.3738 24.7239 13.9937 25.2034 13.9936H32.3833ZM26.0718 27.6257H31.5149V15.6917H26.0718V27.6257ZM15.0023 27.6257H20.4464V4.87485H15.0023V27.6257ZM3.93383 27.6257H9.37697V11.0987H3.93383V27.6257Z" fill="#1B1C1E"/>
</svg>
