<svg width="20" height="20" viewBox="0 0 20 20" fill="none" xmlns="http://www.w3.org/2000/svg">
<path d="M15.8325 16.875C16.1777 16.875 16.4575 17.1548 16.4575 17.5C16.4575 17.8452 16.1777 18.125 15.8325 18.125H3.83252C3.48734 18.125 3.20752 17.8452 3.20752 17.5C3.20752 17.1548 3.48734 16.875 3.83252 16.875H15.8325ZM4.70752 9.5V3C4.70752 2.65482 4.98734 2.375 5.33252 2.375C5.6777 2.375 5.95752 2.65482 5.95752 3V9.5C5.95752 11.6401 7.69242 13.375 9.83252 13.375C11.9726 13.375 13.7075 11.6401 13.7075 9.5V3C13.7075 2.65482 13.9873 2.375 14.3325 2.375C14.6777 2.375 14.9575 2.65482 14.9575 3V9.5C14.9575 12.3305 12.663 14.625 9.83252 14.625C7.00206 14.625 4.70752 12.3305 4.70752 9.5Z" fill="#9095AC"/>
</svg>
